<svg xmlns="http://www.w3.org/2000/svg" viewBox="0 0 1000 752" width="1000" height="752" role="img" aria-label="Featured projects"><defs>
<linearGradient id="gt" gradientUnits="userSpaceOnUse" x1="0" y1="0" x2="1000" y2="0" spreadMethod="reflect">
<stop offset="0" stop-color="#2997ff"/><stop offset="0.4" stop-color="#bf5af2"/><stop offset="0.75" stop-color="#ff375f"/><stop offset="1" stop-color="#ff9f0a"/>
<animateTransform attributeName="gradientTransform" type="translate" from="0 0" to="2000 0" dur="24s" repeatCount="indefinite"/>
</linearGradient>
<linearGradient id="gs" x1="0" y1="0" x2="1" y2="1"><stop offset="0" stop-color="#0a84ff"/><stop offset="1" stop-color="#bf5af2"/></linearGradient>
<linearGradient id="gc" x1="0" y1="0" x2="1" y2="1"><stop offset="0" stop-color="#0a84ff"/><stop offset="1" stop-color="#5e5ce6"/></linearGradient>
</defs><style>text{font-family:-apple-system,BlinkMacSystemFont,'SF Pro Display','SF Pro Text','Helvetica Neue',Helvetica,'Segoe UI',Arial,sans-serif}</style><rect x="0" y="0" width="492" height="752" rx="28" fill="#000000" /><clipPath id="k2"><rect x="0" width="492" height="752" rx="28"/></clipPath><circle cx="420" cy="40" r="240" fill="url(#gs)" fill-opacity=".26" clip-path="url(#k2)"/><text x="32" y="60" font-size="12.5" font-weight="600" fill="#ff9f0a" text-anchor="start" letter-spacing="2" >AI-POWERED ACCOUNTING WORKSPACE</text><text x="32" y="124" font-size="56" font-weight="700" fill="url(#gt)" text-anchor="start" letter-spacing="-2" >Clienter AI.</text><text x="32" y="168" font-size="17" font-weight="400" fill="#86868b" text-anchor="start" letter-spacing="0" >Workflow automation, client engagement,</text><text x="32" y="194" font-size="17" font-weight="400" fill="#86868b" text-anchor="start" letter-spacing="0" >document management, real-time messaging, team</text><text x="32" y="220" font-size="17" font-weight="400" fill="#86868b" text-anchor="start" letter-spacing="0" >collaboration and role-based access in one</text><text x="32" y="246" font-size="17" font-weight="400" fill="#86868b" text-anchor="start" letter-spacing="0" >platform.</text><text x="32" y="298" font-size="12.5" font-weight="600" fill="#86868b" text-anchor="start" letter-spacing="2" >HIGHLIGHTS</text><path d="M34 322l4 4 8-9" fill="none" stroke="#2997ff" stroke-width="2.4" stroke-linecap="round" stroke-linejoin="round"/><text x="58" y="328" font-size="16" font-weight="400" fill="#f5f5f7" text-anchor="start" letter-spacing="0" >AI-assisted accounting workflows</text><path d="M34 356l4 4 8-9" fill="none" stroke="#2997ff" stroke-width="2.4" stroke-linecap="round" stroke-linejoin="round"/><text x="58" y="362" font-size="16" font-weight="400" fill="#f5f5f7" text-anchor="start" letter-spacing="0" >Real-time messaging for teams and clients</text><path d="M34 390l4 4 8-9" fill="none" stroke="#2997ff" stroke-width="2.4" stroke-linecap="round" stroke-linejoin="round"/><text x="58" y="396" font-size="16" font-weight="400" fill="#f5f5f7" text-anchor="start" letter-spacing="0" >Centralised document management</text><path d="M34 424l4 4 8-9" fill="none" stroke="#2997ff" stroke-width="2.4" stroke-linecap="round" stroke-linejoin="round"/><text x="58" y="430" font-size="16" font-weight="400" fill="#f5f5f7" text-anchor="start" letter-spacing="0" >Role-based access control (RBAC)</text><path d="M34 458l4 4 8-9" fill="none" stroke="#2997ff" stroke-width="2.4" stroke-linecap="round" stroke-linejoin="round"/><text x="58" y="464" font-size="16" font-weight="400" fill="#f5f5f7" text-anchor="start" letter-spacing="0" >Built for team collaboration</text><text x="32" y="512" font-size="12.5" font-weight="600" fill="#86868b" text-anchor="start" letter-spacing="2" >BUILT WITH</text><rect x="32.0" y="528" width="78.8" height="28" rx="14.0" fill="#1c1c1e"/><text x="71.4" y="546.7" font-size="13.5" font-weight="500" fill="#f5f5f7" text-anchor="middle">Next.js</text><rect x="118.8" y="528" width="71.0" height="28" rx="14.0" fill="#1c1c1e"/><text x="154.3" y="546.7" font-size="13.5" font-weight="500" fill="#f5f5f7" text-anchor="middle">Django</text><rect x="197.8" y="528" width="55.3" height="28" rx="14.0" fill="#1c1c1e"/><text x="225.4" y="546.7" font-size="13.5" font-weight="500" fill="#f5f5f7" text-anchor="middle">Java</text><rect x="261.1" y="528" width="71.0" height="28" rx="14.0" fill="#1c1c1e"/><text x="296.6" y="546.7" font-size="13.5" font-weight="500" fill="#f5f5f7" text-anchor="middle">Docker</text><rect x="340.1" y="528" width="47.5" height="28" rx="14.0" fill="#1c1c1e"/><text x="363.8" y="546.7" font-size="13.5" font-weight="500" fill="#f5f5f7" text-anchor="middle">Git</text><text x="32" y="588" font-size="12.5" font-weight="600" fill="#86868b" text-anchor="start" letter-spacing="2" >MY ROLE</text><text x="32" y="616" font-size="16" font-weight="400" fill="#f5f5f7" text-anchor="start" letter-spacing="0" >Full stack development: backend services, APIs,</text><text x="32" y="640" font-size="16" font-weight="400" fill="#f5f5f7" text-anchor="start" letter-spacing="0" >integrations and deployment.</text><text x="32" y="718" font-size="18" font-weight="500" fill="#2997ff" text-anchor="start" letter-spacing="0" >Learn more ›</text><rect x="508" y="0" width="492" height="752" rx="28" fill="#f5f5f7" /><text x="540" y="60" font-size="12.5" font-weight="600" fill="#ff9f0a" text-anchor="start" letter-spacing="2" >B2B DIGITAL PLATFORM FOR MSMES</text><text x="540" y="124" font-size="56" font-weight="700" fill="#1d1d1f" text-anchor="start" letter-spacing="-2" >Tata Nexarc.</text><text x="540" y="168" font-size="17" font-weight="400" fill="#515154" text-anchor="start" letter-spacing="0" >Procurement, financing and logistics workflows</text><text x="540" y="194" font-size="17" font-weight="400" fill="#515154" text-anchor="start" letter-spacing="0" >with secure, high-volume payment integrations</text><text x="540" y="220" font-size="17" font-weight="400" fill="#515154" text-anchor="start" letter-spacing="0" >across multiple business modules.</text><text x="540" y="272" font-size="12.5" font-weight="600" fill="#86868b" text-anchor="start" letter-spacing="2" >HIGHLIGHTS</text><path d="M542 296l4 4 8-9" fill="none" stroke="#0066cc" stroke-width="2.4" stroke-linecap="round" stroke-linejoin="round"/><text x="566" y="302" font-size="16" font-weight="400" fill="#1d1d1f" text-anchor="start" letter-spacing="0" >Orders, invoices, wallets and refunds flows</text><path d="M542 330l4 4 8-9" fill="none" stroke="#0066cc" stroke-width="2.4" stroke-linecap="round" stroke-linejoin="round"/><text x="566" y="336" font-size="16" font-weight="400" fill="#1d1d1f" text-anchor="start" letter-spacing="0" >Secure, high-volume payment workflows</text><path d="M542 364l4 4 8-9" fill="none" stroke="#0066cc" stroke-width="2.4" stroke-linecap="round" stroke-linejoin="round"/><text x="566" y="370" font-size="16" font-weight="400" fill="#1d1d1f" text-anchor="start" letter-spacing="0" >Email and WhatsApp integrations</text><path d="M542 398l4 4 8-9" fill="none" stroke="#0066cc" stroke-width="2.4" stroke-linecap="round" stroke-linejoin="round"/><text x="566" y="404" font-size="16" font-weight="400" fill="#1d1d1f" text-anchor="start" letter-spacing="0" >Jenkins CI/CD, releases and monitoring</text><path d="M542 432l4 4 8-9" fill="none" stroke="#0066cc" stroke-width="2.4" stroke-linecap="round" stroke-linejoin="round"/><text x="566" y="438" font-size="16" font-weight="400" fill="#1d1d1f" text-anchor="start" letter-spacing="0" >Procurement, financing and logistics modules</text><text x="540" y="486" font-size="12.5" font-weight="600" fill="#86868b" text-anchor="start" letter-spacing="2" >BUILT WITH</text><rect x="540.0" y="502" width="63.1" height="28" rx="14.0" fill="#fff"/><text x="571.6" y="520.7" font-size="13.5" font-weight="500" fill="#1d1d1f" text-anchor="middle">React</text><rect x="611.1" y="502" width="71.0" height="28" rx="14.0" fill="#fff"/><text x="646.6" y="520.7" font-size="13.5" font-weight="500" fill="#1d1d1f" text-anchor="middle">Python</text><rect x="690.1" y="502" width="110.1" height="28" rx="14.0" fill="#fff"/><text x="745.2" y="520.7" font-size="13.5" font-weight="500" fill="#1d1d1f" text-anchor="middle">Spring Boot</text><rect x="808.3" y="502" width="47.5" height="28" rx="14.0" fill="#fff"/><text x="832.0" y="520.7" font-size="13.5" font-weight="500" fill="#1d1d1f" text-anchor="middle">AWS</text><rect x="863.8" y="502" width="78.8" height="28" rx="14.0" fill="#fff"/><text x="903.2" y="520.7" font-size="13.5" font-weight="500" fill="#1d1d1f" text-anchor="middle">Jenkins</text><rect x="540.0" y="538" width="47.5" height="28" rx="14.0" fill="#fff"/><text x="563.7" y="556.7" font-size="13.5" font-weight="500" fill="#1d1d1f" text-anchor="middle">Git</text><text x="540" y="598" font-size="12.5" font-weight="600" fill="#86868b" text-anchor="start" letter-spacing="2" >MY ROLE</text><text x="540" y="626" font-size="16" font-weight="400" fill="#1d1d1f" text-anchor="start" letter-spacing="0" >Software Developer (Jun 2022 – Sep 2024): owned</text><text x="540" y="650" font-size="16" font-weight="400" fill="#1d1d1f" text-anchor="start" letter-spacing="0" >the payment and order lifecycle modules.</text><text x="540" y="718" font-size="18" font-weight="500" fill="#0066cc" text-anchor="start" letter-spacing="0" >Learn more ›</text></svg>